Coordinates
version=1
nRows=34
nColumns=19
inDegrees=yes

Units are S.I. units (second, meters, Newtons, ...)
If the header above contains a line with 'inDegrees', this indicates whether rotational values are in degrees (yes) or radians (no).

endheader
time	pelvis_tilt	pelvis_list	pelvis_rotation	pelvis_tx	pelvis_ty	pelvis_tz	hip_flexion_r	hip_adduction_r	hip_rotation_r	knee_angle_r	knee_angle_r_beta	ankle_angle_r	hip_flexion_l	hip_adduction_l	hip_rotation_l	knee_angle_l	knee_angle_l_beta	ankle_angle_l
     16.66000000	     -4.59024641	      7.10731412	      4.57597565	      2.27439269	      0.95875664	      0.99091265	     -6.59352787	     -9.66275880	     -7.91120376	     66.82132620	      1.16625215	    -16.44397966	     24.12646199	      8.16424258	     -5.12529767	     16.89133959	      0.29480949	     -0.18702350
     16.66666667	     -4.31705067	      7.88367611	      4.88340532	      2.27268982	      0.95441000	      0.99047102	     -5.12451625	    -10.80270890	     -7.95949913	     70.72657850	      1.23441166	    -15.96696436	     24.15482392	      8.94858628	     -5.71934412	     19.74599461	      0.34463262	      0.83065856
     16.67333333	     -4.06938283	      8.59023845	      5.22648700	      2.27071613	      0.94981492	      0.99010451	     -3.52478444	    -11.81802948	     -7.85981845	     74.58107110	      1.30168525	    -15.48007439	     24.24725039	      9.64743495	     -6.16114718	     22.89956203	      0.39967275	      2.24204745
     16.68000000	     -3.78728399	      9.24308851	      5.59370832	      2.26856611	      0.94519121	      0.98987300	     -1.88854637	    -12.73575298	     -7.67774301	     78.31918794	      1.36692770	    -14.95019693	     24.21401779	     10.29775460	     -6.34138670	     26.06035078	      0.45483893	      3.95245809
     16.68666667	     -3.57080693	      9.77589613	      5.99199563	      2.26618835	      0.94053002	      0.98969260	     -0.07104517	    -13.46119162	     -7.34967462	     81.94079458	      1.43013666	    -14.34959243	     24.14618023	     10.85924431	     -6.25690388	     29.13263335	      0.50846037	      5.94006991
     16.69333333	     -2.85699421	     10.38612396	      6.39467848	      2.26374129	      0.93663058	      0.98957667	      1.17708855	    -14.20954307	     -7.08299011	     85.27835507	      1.48838808	    -13.63869239	     23.30195095	     11.50895258	     -5.87750932	     31.86185731	      0.55609432	      8.12202056
     16.70000000	     -3.23633206	     10.50119894	      6.81365153	      2.26086054	      0.93187692	      0.98948310	      3.95328461	    -14.38398739	     -6.36366971	     88.63637522	      1.54699658	    -12.95155148	     23.61375142	     11.74198074	     -5.31575152	     34.51293599	      0.60236437	     10.37784819
     16.70666667	     -3.12983874	     10.67515233	      7.21484351	      2.25804369	      0.92808247	      0.98939515	      6.15859004	    -14.56789017	     -5.73686507	     91.63906548	      1.59940342	    -12.14387335	     23.12804416	     12.01846735	     -4.59766447	     36.70317005	      0.64059116	     12.67043695
     16.71333333	     -3.05088192	     10.72557155	      7.54143408	      2.25521473	      0.92479785	      0.98932587	      8.48233000	    -14.57063337	     -4.99815754	     94.36530193	      1.64698522	    -11.30937188	     22.45649651	     12.15334557	     -3.80751527	     38.48299750	      0.67165501	     14.92121551
     16.72000000	     -2.55780726	     10.80048413	      7.82276377	      2.25255999	      0.92262478	      0.98921203	     10.29551785	    -14.55542896	     -4.35061812	     96.68391731	      1.68745269	    -10.41688045	     21.03597586	     12.26747259	     -2.91722778	     39.72523437	      0.69333614	     17.09324078
     16.72666667	     -2.89827442	     10.43443384	      7.91868603	      2.24981489	      0.92008847	      0.98919621	     13.30059961	    -14.00831202	     -3.31835205	     98.84113133	      1.72510318	     -9.63209030	     20.47508235	     11.89963357	     -2.24707235	     40.77335406	      0.71162928	     19.00680621
     16.73333333	     -2.85344894	     10.13674834	      7.96341225	      2.24743603	      0.91866671	      0.98909138	     15.75706444	    -13.52153806	     -2.44983315	    100.54438241	      1.75483052	     -8.81058469	     19.19602043	     11.55054340	     -1.55051155	     41.28841763	      0.72061883	     20.72912391
     16.74000000	     -2.53553793	      9.87183814	      8.07934059	      2.24530828	      0.91823412	      0.98870654	     17.76648835	    -13.13101807	     -1.83730252	    101.82501261	      1.77718173	     -8.03339856	     17.36810913	     11.27677224	     -0.58894055	     41.35547502	      0.72178920	     22.10370518
     16.74666667	     -2.53752129	      9.31955679	      7.85945798	      2.24374015	      0.91809232	      0.98862330	     20.18493251	    -12.32230688	     -1.01088833	    102.74739362	      1.79328032	     -7.21678002	     15.72558072	     10.51825975	     -0.24956450	     41.05854180	      0.71660674	     23.38142333
     16.75333333	     -2.70250281	      8.68113612	      7.36367330	      2.24221220	      0.91827580	      0.98870397	     22.83833055	    -11.32714738	     -0.01402895	    103.37942935	      1.80431142	     -6.63860946	     14.19057483	      9.65786106	     -0.11412131	     40.55106250	      0.70774956	     24.15498812
     16.76000000	     -2.82787336	      8.10152131	      7.31943338	      2.24120261	      0.91922048	      0.98810421	     25.07956004	    -10.70991014	      0.31012827	    103.56208536	      1.80749937	     -6.00417857	     12.34868411	      9.03209628	      0.59144624	     39.65501234	      0.69211053	     24.59293331
     16.76666667	     -3.05261828	      7.41132711	      7.07826618	      2.24062427	      0.92061490	      0.98760450	     27.34776918	     -9.96659314	      0.61873977	    103.38983843	      1.80449309	     -5.46298397	     10.50125831	      8.23795592	      1.01132847	     38.50466519	      0.67203318	     24.67492924
     16.77333333	     -3.04678134	      6.66259527	      6.11902676	      2.24029429	      0.92259468	      0.98796297	     29.44145682	     -8.69356516	      1.46446470	    102.94363545	      1.79670538	     -5.13709470	      8.34833878	      7.17846079	      0.50508092	     37.14626549	      0.64832464	     24.35967453
     16.78000000	     -3.48783241	      5.92082131	      5.92971839	      2.24038014	      0.92470273	      0.98730802	     31.61203388	     -8.05016334	      1.38860280	    102.13518044	      1.78259518	     -4.68197133	      6.58140689	      6.39235404	      0.86751682	     35.67962983	      0.62272702	     23.56789094
     16.78666667	     -3.25534203	      5.13985279	      5.13289886	      2.24091387	      0.92791480	      0.98740897	     32.96842282	     -6.96445799	      1.62899469	    100.98261653	      1.76247915	     -4.34586566	      3.95654288	      5.40042223	      0.50163035	     33.89006783	      0.59149327	     22.34299776
     16.79333333	     -3.36494602	      4.31490237	      4.68785989	      2.24171425	      0.93117355	      0.98710657	     34.45287290	     -6.13900996	      1.39975765	     99.54831943	      1.73744594	     -3.97876860	      1.72766824	      4.46488647	      0.40323065	     32.11746658	      0.56055554	     20.63826405
     16.80000000	     -3.45902183	      3.47633235	      4.28730792	      2.24282621	      0.93471833	      0.98678580	     35.72943839	     -5.37631687	      0.98891485	     97.85483351	      1.70788903	     -3.56402034	     -0.49488329	      3.51338840	      0.19744225	     30.32505099	      0.52927199	     18.46023904
     16.80666667	     -4.29103397	      2.74937193	      4.20405583	      2.24409887	      0.93748839	      0.98612648	     37.66833463	     -5.09072140	      0.24565663	     96.04672874	      1.67633165	     -3.08745059	     -1.70699592	      2.70168052	     -0.01733550	     28.88535602	      0.50414457	     15.83779544
     16.81333333	     -3.69802606	      1.78397369	      3.54112995	      2.24585415	      0.94233628	      0.98626207	     37.81707652	     -3.96847833	     -0.21518114	     93.73772246	      1.63603189	     -2.69019402	     -4.68533201	      1.58770094	     -0.70327472	     26.87470125	      0.46905202	     12.77871879
     16.82000000	     -3.76945833	      0.96926691	      3.34797354	      2.24769723	      0.94642035	      0.98586259	     38.51989216	     -3.47628689	     -1.11479167	     91.32312567	      1.59388923	     -2.22237342	     -6.67702646	      0.64906084	     -1.20944564	     25.27403951	      0.44111520	      9.35522017
     16.82666667	     -3.97134685	      0.21237502	      3.04056816	      2.24966886	      0.95035406	      0.98564052	     39.25509016	     -2.96040033	     -1.92884119	     88.73377219	      1.54869648	     -1.79850781	     -8.37810198	     -0.22359253	     -2.07137348	     23.86767721	      0.41656955	      5.63531106
     16.83333333	     -4.07029869	     -0.45746091	      2.83913739	      2.25171478	      0.95440764	      0.98533676	     39.70385650	     -2.62922459	     -2.88372620	     85.92894820	      1.49974307	     -1.38196180	    -10.03434400	     -1.02172555	     -2.99235748	     22.62267615	      0.39484018	      1.70897251
     16.84000000	     -4.29995500	     -1.03960708	      2.60061996	      2.25381186	      0.95824273	      0.98514271	     40.17029088	     -2.34382415	     -3.79381369	     82.94104506	      1.44759432	     -1.05856359	    -11.37789040	     -1.71186345	     -4.05395196	     21.61042867	      0.37717313	     -2.31858573
     16.84666667	     -4.39690951	     -1.51554626	      2.41479941	      2.25592543	      0.96211000	      0.98489781	     40.33974388	     -2.20742885	     -4.77591335	     79.76171060	      1.39210447	     -0.78079724	    -12.69965292	     -2.30414823	     -5.17652523	     20.79900093	      0.36301105	     -6.38986842
     16.85333333	     -4.64865306	     -1.87689476	      2.15740936	      2.25797092	      0.96564082	      0.98480971	     40.56655928	     -2.07704809	     -5.63500214	     76.40464230	      1.33351257	     -0.62748002	    -13.66617731	     -2.75858967	     -6.38916365	     20.28667701	      0.35406931	    -10.31466830
     16.86000000	     -4.78601830	     -2.13530086	      1.94307416	      2.25986915	      0.96908990	      0.98475993	     40.53670585	     -2.04965981	     -6.53554627	     72.86465265	      1.27172810	     -0.52766245	    -14.58165791	     -3.12201144	     -7.55881410	     20.01978168	      0.34941111	    -14.05201961
     16.86666667	     -4.99914823	     -2.31835552	      1.66324328	      2.26169648	      0.97217097	      0.98492943	     40.47592308	     -1.97503870	     -7.34944473	     69.15390022	      1.20696325	     -0.52283058	    -15.24434212	     -3.39404923	     -8.70268913	     20.07869910	      0.35043941	    -17.49363536
     16.87333333	     -5.21005562	     -2.42307291	      1.37469825	      2.26330255	      0.97496786	      0.98520786	     40.30064186	     -1.87731905	     -8.07344599	     65.27257355	      1.13922132	     -0.56215431	    -15.73310520	     -3.58360053	     -9.69372935	     20.45344336	      0.35697993	    -20.53273432
     16.88000000	     -5.55919704	     -2.44850265	      1.02884087	      2.26463142	      0.97726306	      0.98580264	     40.19162726	     -1.70515065	     -8.64976605	     61.24771052	      1.06897421	     -0.62399471	    -15.90281135	     -3.69048343	    -10.54807168	     21.16402706	      0.36938196	    -23.13137463
